<svg xmlns="http://www.w3.org/2000/svg" width="359" height="304.4549" viewBox="0 0 359 304.4549">
  <g>
    <path d="M134.6964,23.1483c28.8852-.3069,57.5342-5.3741,84.08-15.6406,15.8251-6.12,53.3573-9.8987,77.6-5.784,21.0457,3.5721,71.1759,19.8625,49.994,75.056s-48.2019,60.9334-28.3266,96.9564c14.5969,26.4562,39.68,52.7192,17.6617,73.8784-34.2413,32.9061-174.8684,81.6838-247.87,41.9662S-.64,235.5693,21.334,173.3318s-34.8864-69.7767-5.1519-115.93C34.0165,29.72,91.5227,23.6076,134.6964,23.1483Z" fill="#f0f0f0"/>
    <path d="M33.7027,90.9363c19.8106,14.9154,34.978,18.5991,40.1323,12.8051L1.2894,49.1222C3.8135,54.2892,15.7761,77.44,33.7027,90.9363Z"/>
    <path d="M.7893,48.0758s.1707.3719.5,1.0464L73.835,103.7414c.1187-.1335.2383-.266.3461-.4093,4.7983-6.373-2.8362-20.2155-23.1028-35.4742S.7893,48.0758.7893,48.0758Z"/>
    <path d="M57.7454,91.1133Q50.4076,85.62,43.0844,80.1075q-14.6587-11.01-29.4589-21.8292a.1056.1056,0,0,0-.1268.1687q9.7967,7.5783,19.6538,15.0777A49.4657,49.4657,0,0,0,22.665,75.086a.1834.1834,0,0,0,.0491.3491A50.8469,50.8469,0,0,0,33.69,73.9331q4.463,3.3986,8.9315,6.79,7.3161,5.5217,14.63,11.047c4.8425,3.6669,9.5668,7.7074,14.6906,10.9663a.3358.3358,0,0,0,.4038-.5361C67.7977,98.1769,62.6076,94.753,57.7454,91.1133Z" fill="#fff"/>
    <path d="M51.4511,86.753a103.4192,103.4192,0,0,0-17.61,2.5211.1152.1152,0,0,0,.0321.2279,103.3946,103.3946,0,0,0,17.6211-2.4453.1534.1534,0,0,0-.0432-.3037Z" fill="#fff" stroke="#000" stroke-miterlimit="10" stroke-width="0.25"/>
    <path d="M40.4627,66.5473c.1935,2.36.484,4.7108.7483,7.0638a30.2447,30.2447,0,0,0,1.0746,6.3072.1737.1737,0,0,0,.3306-.0468,30.2268,30.2268,0,0,0-.711-6.3585c-.3965-2.3342-.7671-4.6739-1.2337-6.9953a.1055.1055,0,0,0-.2088.03Z" fill="#fff" stroke="#000" stroke-miterlimit="10" stroke-width="0.25"/>
    <path d="M58.8439,80.7536a90.521,90.521,0,0,0,1.6116,12.188.1919.1919,0,0,0,.38-.0534,90.4885,90.4885,0,0,0-1.8209-12.1589.0863.0863,0,0,0-.1707.0243Z" fill="#fff" stroke="#000" stroke-miterlimit="10" stroke-width="0.25"/>
    <path d="M66.7666,97.4818A80.9808,80.9808,0,0,0,52.311,99.5873a.1248.1248,0,0,0,.0349.247A80.9888,80.9888,0,0,0,66.82,97.8615a.1918.1918,0,0,0-.0534-.38Z" fill="#fff" stroke="#000" stroke-miterlimit="10" stroke-width="0.25"/>
    <path d="M54.25,71.6932c7.1114,19.3878,16.0535,28.8213,22.2778,27.1L50.4857,27.7954C49.9147,32.55,47.8146,54.1491,54.25,71.6932Z"/>
    <path d="M50.6091,26.8374s-.0488.3373-.1234.958L76.5274,98.7929c.1432-.04.2869-.0782.4272-.13,6.237-2.2878,7.1562-15.42-.1189-35.2546S50.6091,26.8374,50.6091,26.8374Z"/>
    <path d="M70.984,82.6869q-2.6482-7.159-5.2773-14.3253-5.2741-14.3277-10.733-28.5857a.0879.0879,0,0,0-.1649.06q3.425,9.7295,6.928,19.4306a41.1781,41.1781,0,0,0-8.04-3.65.1528.1528,0,0,0-.1234.2664,42.3359,42.3359,0,0,0,8.3551,3.9118c1.0565,2.93,2.1074,5.8613,3.1766,8.7865q2.62,7.1694,5.2371,14.34c1.7289,4.7538,3.206,9.7156,5.3161,14.3113a.28.28,0,0,0,.5247-.1925C74.8208,92.1717,72.7389,87.4308,70.984,82.6869Z" fill="#fff"/>
    <path d="M68.5536,76.7917A86.122,86.122,0,0,0,55.0978,70.593a.0959.0959,0,0,0-.0806.1738,86.1255,86.1255,0,0,0,13.4291,6.2566.1278.1278,0,0,0,.1073-.2317Z" fill="#fff" stroke="#000" stroke-miterlimit="10" stroke-width="0.25"/>
    <path d="M70.0039,57.6926c-.9317,1.738-1.7912,3.5134-2.67,5.2785a25.1873,25.1873,0,0,0-2.1,4.8971.1446.1446,0,0,0,.2523.1168,25.155,25.155,0,0,0,2.3776-4.7684c.7781-1.8118,1.5767-3.6157,2.3-5.45a.0881.0881,0,0,0-.16-.074Z" fill="#fff" stroke="#000" stroke-miterlimit="10" stroke-width="0.25"/>
    <path d="M76.4362,75.9383a75.3626,75.3626,0,0,0-4.3831,9.2527.16.16,0,0,0,.29.1342,75.3557,75.3557,0,0,0,4.224-9.3266.0721.0721,0,0,0-.1309-.06Z" fill="#fff" stroke="#000" stroke-miterlimit="10" stroke-width="0.25"/>
    <path d="M74.4141,91.22a67.45,67.45,0,0,0-11.0617-5.0632.1039.1039,0,0,0-.0872.1885A67.4194,67.4194,0,0,0,74.28,91.5092a.16.16,0,0,0,.1341-.29Z" fill="#fff" stroke="#000" stroke-miterlimit="10" stroke-width="0.25"/>
    <path d="M31.5873,107.6765c17.0632,7.287,28.7417,7.2462,31.4483,2.1139L.5508,83.106C3.31,86.4075,16.147,101.0826,31.5873,107.6765Z"/>
    <path d="M0,82.4354s.1906.24.5508.6706L63.0357,109.79c.0623-.1181.1255-.2358.1781-.3593,2.3442-5.489-5.6814-14.1778-23.1374-21.6325S0,82.4354,0,82.4354Z"/>
    <path d="M49.0851,103.4983q-6.3147-2.6761-12.6219-5.3691-12.621-5.3728-25.3109-10.5818a.0789.0789,0,0,0-.0618.1451q8.4742,3.7508,16.9783,7.4332a37.0091,37.0091,0,0,0-7.3391,3.013.1372.1372,0,0,0,.0983.2447,38.0318,38.0318,0,0,0,7.7044-3.0571c2.5674,1.113,5.1323,2.2308,7.7045,3.3327q6.304,2.7009,12.6067,5.4048c4.1747,1.7963,8.33,3.8856,12.6365,5.3352a.2513.2513,0,0,0,.1972-.4619C57.6529,106.83,53.2692,105.2719,49.0851,103.4983Z" fill="#fff"/>
    <path d="M43.7316,101.4583a77.3744,77.3744,0,0,0-12.3416,4.986.0862.0862,0,1,0,.0642.16,77.3824,77.3824,0,0,0,12.363-4.9327.1149.1149,0,1,0-.0856-.2133Z" fill="#fff"/>
    <path d="M32.13,88.7483c.5633,1.68,1.1954,3.3356,1.8088,4.9975a22.6347,22.6347,0,0,0,1.91,4.39.13.13,0,0,0,.2317-.0932,22.6093,22.6093,0,0,0-1.6554-4.4918c-.7061-1.6248-1.3945-3.2581-2.149-4.8609a.079.079,0,0,0-.1461.0584Z" fill="#fff"/>
    <path d="M48.0275,95.7759a67.7344,67.7344,0,0,0,3.354,8.5655.1435.1435,0,0,0,.2663-.1068,67.69,67.69,0,0,0-3.5-8.5068.0648.0648,0,0,0-.12.0481Z" fill="#fff" stroke="#000" stroke-miterlimit="10" stroke-width="0.25"/>
    <path d="M56.7794,106.5092a60.5925,60.5925,0,0,0-10.1243,4.119.0933.0933,0,1,0,.07.173,60.5864,60.5864,0,0,0,10.1616-4.0257.1436.1436,0,0,0-.1073-.2663Z" fill="#fff" stroke="#000" stroke-miterlimit="10" stroke-width="0.25"/>
    <path d="M49.1482,45.8018H265.2057A12.3083,12.3083,0,0,1,277.514,58.11h0V223.51H36.84V58.11A12.3083,12.3083,0,0,1,49.1482,45.8018Z" fill="#fff"/>
    <path d="M47.2065,45.8018H267.264a10.25,10.25,0,0,1,10.25,10.25h0V69.8812H36.9566V56.0518a10.25,10.25,0,0,1,10.25-10.25Z"/>
    <path d="M47.2065,45.8018H267.264a10.25,10.25,0,0,1,10.25,10.25h0V69.8812H36.9566V56.0518a10.25,10.25,0,0,1,10.25-10.25Z" fill="#fff" opacity="0.3"/>
    <circle cx="46.5899" cy="57.8158" r="1.6848" fill="none" stroke="#fff" stroke-miterlimit="10"/>
    <circle cx="52.9865" cy="57.8158" r="1.6848" fill="none" stroke="#fff" stroke-miterlimit="10"/>
    <circle cx="59.7731" cy="57.8158" r="1.6848" fill="none" stroke="#fff" stroke-miterlimit="10"/>
    <rect x="46.5899" y="78.6264" width="34.4119" height="34.412" fill="#ececec"/>
    <rect x="47.3196" y="117.7762" width="33.6823" height="5.1756" fill="#ececec"/>
    <rect x="89.2898" y="78.6264" width="61.2653" height="5.7384" fill="#ececec"/>
    <rect x="89.2898" y="87.6356" width="61.2653" height="5.7384" fill="#ececec"/>
    <rect x="89.2898" y="97.0907" width="61.2653" height="5.7384" fill="#ececec"/>
    <rect x="89.2898" y="106.7794" width="61.2653" height="5.7383" fill="#ececec"/>
    <rect x="47.3196" y="125.2536" width="17.0674" height="5.1756" fill="#ececec"/>
    <rect x="170.6425" y="80.9237" width="97.1331" height="93.2589" fill="#ececec"/>
    <g opacity="0.2">
      <path d="M93.9651,160.1209s1.203.8112.2995,3.1163-1.872,5.9941-1.872,5.9941l-.7806.18,2.226-8.9568" fill="#6d5a66"/>
    </g>
    <g opacity="0.2">
      <polygon points="64.41 178.8 67.113 179.396 68.325 178.204 66.183 174.758 64.41 174.597 64.41 178.8" fill="#6d5a66"/>
    </g>
    <path d="M33.5437,157.3377s11.0288,2.8811,20.1222.3217c12.9289-3.5385,18.51-7.4128,18.51-7.4128l1.331.2536-2.736,5.3284s-2.586,2.9193-9.8131,7.5961a31.0954,31.0954,0,0,1-18.1726,4.8544Z"/>
    <polygon points="40.396 278.863 40.385 281.722 52.25 281.766 44.218 278.877 40.396 278.863"/>
    <polygon points="12.064 278.758 12.054 281.617 19.212 284.927 22.433 284.939 16.445 278.774 12.064 278.758"/>
    <path d="M44.5021,202.4375l-.2843,76.44-3.8219-.0142s-6.3038-17.86-5.2192-35.4371l-4.2329-26.5153-14.499,61.8634-4.3318-.016s-3.6809-22.8747,1.6652-36.6854l2.1862-39.7413Z" fill="#fff" stroke="#000" stroke-miterlimit="10" stroke-width="0.25"/>
    <path d="M44.5021,202.4375s-6.99,5.4192-28.8009,4.68l.2632-4.7865,16.4863-2.9847"/>
    <polygon points="30.944 216.91 35.865 207.193 35.177 243.426 30.944 216.91" fill="#fff" stroke="#000" stroke-miterlimit="10" stroke-width="0.25"/>
    <path d="M34.811,129.8995c-5.04-1.216-9.4482,1.4185-10.3643,5.8283,0,0-7.27,7.1313,2.3288,13.9337l3.0187.3456,4.3721-3.5821,5.9883-8.2737s2.4226-1.8536,2.621-3.8779C43.3025,128.8975,36.8927,127.8326,34.811,129.8995Z"/>
    <path d="M28.9113,149.6694a13.7054,13.7054,0,0,0,2.2233-4.996s-3.1931-.672-2.643-2.998c.4567-1.9331,2.8868-1.2735,3.6551.395l-.0083,2.2207s1.2512-.0281,1.487-4.2866l1.4721-1.8723,5.0572.0188a20.3788,20.3788,0,0,1,1.2508,9.4567,45.5234,45.5234,0,0,1-1.3041,4.86l-5.0419-.0188-.0137,4.287.977,2.3181-1.201,1.31-7.2876-3.1313-.7768-.7423.0181-6.8286Z" fill="#fff" stroke="#000" stroke-miterlimit="10" stroke-width="0.25"/>
    <path d="M15.9644,202.3313c.0012,0,15.62,4.3032,28.5377.1061,0,0-1.4115-25.0411-2.1106-37.4376-.19-3.3794-3.104-8.228-6.489-8.24l-.8567-.0415-.224,3.6458L26.56,156.5194l-.5983-.0294a7.0741,7.0741,0,0,0-4.2029,1.69,9.89,9.89,0,0,0-3.453,6.7213l-2.866,37.9042Z"/>
    <path d="M70.0135,153.3805l1.271.2422,2.3434-2.6122a19.2258,19.2258,0,0,0,3.0373-2.9146c.5431-.9338-.5416-1.5546-.5416-1.5546l-2.42,1.563L76.12,142.968s-3.8861,2.8-4.72,4.4344S70.0135,153.3805,70.0135,153.3805Z" fill="#fff" stroke="#000" stroke-miterlimit="10" stroke-width="0.25"/>
    <path d="M70.3327,151.3374l1.73,1.9759a17.1563,17.1563,0,0,1-2.3281,1.6356C69.4614,154.949,70.3327,151.3374,70.3327,151.3374Z"/>
    <path d="M142.8871,153.0522l-7.0841-8.3348-.0089.0068-.445-1.0285a1.8011,1.8011,0,0,0-1.8619-1.0737l-1.36-.0343a7.7717,7.7717,0,0,0-1.3959-.5691l-2.1868-.6445L132.21,146.66a2.0469,2.0469,0,0,0,.99.546l6.892,8.948Z" fill="#fff" stroke="#000" stroke-miterlimit="10" stroke-width="0.25"/>
    <path d="M173.1827,158.3356a4.0908,4.0908,0,0,0-5.1805-2.5747l-14.4532,4.8565-13.3583-12.9943-4.3363,3.4937,13.6142,16.9237a3.7479,3.7479,0,0,0,4.1027,1.2l.2258-.0757,16.8112-5.6488A4.0907,4.0907,0,0,0,173.1827,158.3356Z"/>
    <polygon points="140.201 147.618 138.541 145.89 134.215 149.183 135.854 151.117 140.201 147.618"/>
    <circle cx="174.8959" cy="136.4486" r="10.3087"/>
    <path d="M197.811,256.3757c-.16-.12-10.057-6.93-10.057-6.93l3.2153-4.6908,9.1384,8.27Z" fill="#fff" stroke="#000" stroke-miterlimit="10" stroke-width="0.25"/>
    <path d="M196.2969,256.3425l.8411,5.84a3.0062,3.0062,0,0,1-.0228.9929l-2.1275,6.8829,10.4147-14.9628-2.8055-1.3353-2.6879-2.0489a.4181.4181,0,0,0-.6555.0693Z"/>
    <path d="M194.9877,270.0583l.7572.5654a.8227.8227,0,0,0,1.1516-.1651q.0143-.019.0275-.039l9.632-13.8283a.9071.9071,0,0,0-.1956-1.2307l-.7571-.5654Z"/>
    <path d="M179.4452,272.2373c0-.206-.4524-12.57-.4524-12.57h5.5258l-1.1263,12.57Z" fill="#fff" stroke="#000" stroke-miterlimit="10" stroke-width="0.25"/>
    <path d="M176.292,150.2007l-2.271,1.0371c-3.8785,1.676-6.4472,4.6756-6.22,7.3523l1.0222,31.2951H188.034V159.9963c0-3.7534.0175-6.4076-2.8294-7.3681Z"/>
    <path d="M173.9761,141.7227h5.6773a.278.278,0,0,1,.278.278v6.2959a5.7992,5.7992,0,0,1-5.7992,5.7992h-.4341V142.0007a.278.278,0,0,1,.278-.278Z" fill="#fff" stroke="#000" stroke-miterlimit="10" stroke-width="0.25"/>
    <path d="M168.2771,189.8853l-7.5638,35.55a6.3086,6.3086,0,0,0,2.4,6.536l28.0924,21.446,3.8948-6.2718L171.968,225.7436l16.0835-35.8583Z" fill="#fff" stroke="#000" stroke-miterlimit="10" stroke-width="0.25"/>
    <polygon points="197.552 247.266 192.279 255.487 188.484 252.768 193.757 244.547 197.552 247.266" fill="#fff" stroke="#000" stroke-miterlimit="10" stroke-width="0.25"/>
    <path d="M178.59,270.9327l-4.0608,4.112a2.8514,2.8514,0,0,1-.7457.5445l-6.4821,2.3471H184.86l-.592-3.1585.0324-3.4739a.4415.4415,0,0,0-.3605-.51.446.446,0,0,0-.0748-.0063Z"/>
    <path d="M167.3014,277.9363v.9717a.8643.8643,0,0,0,.8452.8822h16.35a.8643.8643,0,0,0,.8452-.8822v-.9717Z"/>
    <path d="M180.0743,149.1008l-7.407,5.4775,5.6835.819,4.3864-3.3684-1.2747-2.7038a.8442.8442,0,0,0-1.3882-.2243Z"/>
    <circle cx="187.2454" cy="126.1474" r="8.1512"/>
    <path d="M166.2069,134.0142h13.7137v7.9487a6.38,6.38,0,0,1-6.3794,6.3794h-.955a6.38,6.38,0,0,1-6.3794-6.3794v-7.9487Z" fill="#fff" stroke="#000" stroke-miterlimit="10" stroke-width="0.25"/>
    <circle cx="180.1166" cy="139.8459" r="1.8767" fill="#fff" stroke="#000" stroke-miterlimit="10" stroke-width="0.25"/>
    <path d="M165.348,133.8192s-.7607,6.0267,14.5727,4.15l1.4161-6.1146-10.5249-1.18Z"/>
    <path d="M189.6442,195.8549l-1.5927-5.97H168.2771l5.9684,12.3017,3.849,62.0345h7.27l2.1807-60.3294A8.5513,8.5513,0,0,0,189.6442,195.8549Z" fill="#fff" stroke="#000" stroke-miterlimit="10" stroke-width="0.25"/>
    <rect x="176.9491" y="262.1753" width="9.3027" height="4.1613" fill="#fff" stroke="#000" stroke-miterlimit="10" stroke-width="0.25"/>
    <polygon points="59.222 150.218 62.364 177.256 145.982 170.872 141.75 143.869 59.222 150.218"/>
    <polygon points="194.487 124.241 267.909 127.269 265.719 102.223 191.881 98.101 194.487 124.241"/>
    <polygon points="59.222 150.218 62.364 177.256 145.982 170.872 141.75 143.869 59.222 150.218" fill="#fff" opacity="0.3"/>
    <polygon points="66.696 154.136 69.012 172.42 90.657 170.209 88.586 152.006 66.696 154.136" fill="#fff"/>
    <polygon points="94.104 153.303 95.227 158.829 139.41 154.975 138.2 149.445 94.104 153.303" fill="#fff"/>
    <polygon points="96.462 161.544 97.289 165.661 126.662 162.658 126.338 158.505 96.462 161.544" fill="#fff"/>
    <path d="M56.6907,178.3254a16.47,16.47,0,0,1,2.5079-2.5506s3.7851-3.0267,4.4039-3.4576c0,0,1.0449.4694.244,1.5981a24.3647,24.3647,0,0,1-2.0409,2.4,14.892,14.892,0,0,0,3.1788-1.1417c1.1812-.6723,3.5514-1.9362,4.3779-1.7472s.3433.9035.3433.9035-3.6421,1.939-4.42,2.3607c-.6827.37-.3437.5458-.3437.5458s4.3669-1.89,5.2012-2.1225,1.2717-.0361,1.22.71c0,0-3.3415,1.577-3.8359,1.8208s-2.2265.7522-1.9689,1.29c0,0,3.8732-1.4265,4.5511-1.6283s1.1291.1021.8505.7666l-5.2273,2.24s-.3656.1656-.1743.3539a13.0062,13.0062,0,0,0,2.9173-.0844c.2871-.053,1.2013-.1487,1.1646.5638,0,0-.0479.2416-.9035.3432s-4.7106,1.0634-4.7106,1.0634a13.1968,13.1968,0,0,1-5.5478-.0137c-2.951-.6762-3.2073-1.8017-2.1967-.475l.2012-1.564Z" fill="#fff" stroke="#000" stroke-miterlimit="10" stroke-width="0.25"/>
    <path d="M19.3672,161.4931c.9508-2.4571,5.8917-4.77,9.8673,3.0609,5.0071,9.8613,6.9749,20.5314,28.0822,12.3l1.0847,5.5283s-20.529,15.8948-35.1391-6.8162C21.4263,172.7119,17.4956,166.33,19.3672,161.4931Z"/>
    <path d="M160.2339,177.2983,160.6,173.14l-10.1891-2.2874-.959-1.3814-2.794.3068-4.6925-1.4048a.4043.4043,0,0,0-.5069.2648l-.0041.0138a.4319.4319,0,0,0,.2955.52l2.715.8129-.1139.4389-2.2743-.6244a.4035.4035,0,0,0-.5.2755l-.004.0151a.4318.4318,0,0,0,.3073.5133l2.263.6213-.0628.2421-1.8392-.4029a.4015.4015,0,0,0-.4827.299l-.0039.0186a.4324.4324,0,0,0,.3336.497l1.7838.3908-.0817.3147-1.1633-.212a.4015.4015,0,0,0-.4712.3171l-.0031.0181a.4327.4327,0,0,0,.3509.4852l1.0777.1965h0l4.6445,1.0682a2.0477,2.0477,0,0,0,1.1193-.16Z" fill="#fff" stroke="#000" stroke-miterlimit="10" stroke-width="0.25"/>
    <polygon points="181.054 175.903 176.7 175.08 176.054 179.254 181.054 175.903"/>
    <path d="M184.1086,180.7019l.03-.1959,3.218-20.7817a4.0906,4.0906,0,1,0-8.0849-1.2519h0L176.7,175.0806l4.3537.8227-5,3.351.6463-4.1737-22.8992-4.3273-.967,5.3728,26.3046,7.7311a4.3076,4.3076,0,0,0,.5045.1126,3.9128,3.9128,0,0,0,4.4657-3.2677Z"/>
    <polygon points="153.801 170.753 151.452 170.341 150.522 175.517 152.834 176.126 153.801 170.753"/>
    <path d="M297.2383,228.8837s-.2192,6.7654.2856,8.0545.6281,2.7468-.98,2.7348c-1.5768-.0118-5.3619-.0154-5.9082-.034-1.0128-.0345-1.91-.1627-1.89-.9007s4.7029-.9652,5.5974-1.7086.2352-7.7858.2352-7.7858Z" fill="#fff" stroke="#000" stroke-miterlimit="10" stroke-width="0.25"/>
    <path d="M294.3008,232.6606c.3681.02,2.5039.304,2.8978.3925,1.2789-9.41,2.795-25.1677,2.6607-27.9334q-.0217-.4471-.0713-.8786a36.9451,36.9451,0,0,1,.3418-11.8244c1.8581-8.8132,3.2971-18.3761,3.4528-20.9872.309-5.1824-2.41-9.5974-6.0731-9.8612s-6.68,3.3109-7.2659,8.4644C288.83,182.4718,294.28,232.4542,294.3008,232.6606Z" fill="#fff" stroke="#000" stroke-miterlimit="10" stroke-width="0.25"/>
    <path d="M307.6,229.8155s-.2192,6.7654.2856,8.0546.6941,2.8122-.98,2.7347c-1.5754-.0728-4.6313-.1851-5.1749-.2482-1.36-.1579-2.9309-.1041-2.9108-.8421s4.9907-.81,5.8851-1.5529.2352-7.7857.2352-7.7857Z" fill="#fff" stroke="#000" stroke-miterlimit="10" stroke-width="0.25"/>
    <path d="M304.6625,233.5924c.3681.02,2.5039.3041,2.8978.3926,1.2789-9.41,2.795-25.1677,2.6606-27.9334q-.0216-.4472-.0712-.8787a36.9444,36.9444,0,0,1,.3418-11.8243c1.8581-8.8133,3.2971-18.3762,3.4528-20.9873.309-5.1823-2.41-9.5974-6.0731-9.8611s-6.68,3.3109-7.2659,8.4643C299.1919,183.4036,304.6411,233.3861,304.6625,233.5924Z" fill="#fff" stroke="#000" stroke-miterlimit="10" stroke-width="0.25"/>
    <path d="M277.6723,129.4383c-4.0028,1.08-19.0085-12.39-16.75-23.2149,1.1653-5.571,2.5495.2944,2.5495.2944,3.1126,8.5379,9.57,15.28,17.2773,19.8076C284.2053,128.3565,277.6723,129.4383,277.6723,129.4383Z" fill="#fff" stroke="#000" stroke-miterlimit="10" stroke-width="0.25"/>
    <path d="M283.7418,125.4334a23.56,23.56,0,0,1-5.456-2.8863,3.773,3.773,0,0,0-2.0294-.7156,2.6985,2.6985,0,0,0-2.1765,1.63,7.9478,7.9478,0,0,0-.5848,2.78,5.5413,5.5413,0,0,0,.3232,1.6963,1.8208,1.8208,0,0,0,.5673.6045c4.9291,3.8,11.295,4.6542,17.401,3.4477a6.3451,6.3451,0,0,0,2.251-.796,3.78,3.78,0,0,0,1.6513-3.5989,3.6513,3.6513,0,0,0-1.7714-2.6679c-1.0166-.4913-1.8015-.036-2.8739.228A14.1828,14.1828,0,0,1,283.7418,125.4334Z"/>
    <path d="M288.2477,106.5471c.5074,3.366-4.041,15.487-.0066,18.7962,4.1775,3.4265,3.7958-5.5031,10.6142-5.8824,8.224-.4575,3.4891-23.8871-10.1322-20.112-.5643.1564-1.2966-1.0543-1.4973-.52C284.8025,105.2767,287.716,103.02,288.2477,106.5471Z"/>
    <path d="M290.0449,125.0683a11.1568,11.1568,0,0,0-4.882,11.6022c1.39,8.01,6.8914,7.0284,6.0131,20.47-.297,4.5455-1.4192,6.7274-.0032,9.15,2.1974,3.7594,21.3726,4.2569,23.2741-2.1555,1.3857-4.6728-2.6252-2.2747-6.4643-12.0809s4.6912-24.973-3.8481-27.1047C297.57,123.31,292.8844,130.6417,290.0449,125.0683Z"/>
    <path d="M292.4664,117.1544s-1.3476,7.7342-2.5183,8.7112c-.6168.5148-5.8229,8.4743.94,7.8482,9.6688-.8952,8.1377-6.7962,9.0421-7.8231,1.9116-2.17-.9356-3.0231-3.2456-8.8049C295.8085,114.8931,292.4664,117.1544,292.4664,117.1544Z" fill="#fff" stroke="#000" stroke-miterlimit="10" stroke-width="0.25"/>
    <path d="M295.1537,117.0645c-1.65.1187-4.4579,1.6444-6.0519,2.09a2.3654,2.3654,0,0,1-1.5689.1035c-.6666-.2911-.9045-1.1372-1.0463-1.8765-.9321-4.8611-1.2238-14.6642.0707-14.1488a7.99,7.99,0,0,1,3.9566-.4972,7.4441,7.4441,0,0,1,2.5994.5557,10.0046,10.0046,0,0,1,2.4036,1.64c1.6922,1.4434,3.3918,3.2106,3.6615,5.4669a9.5927,9.5927,0,0,1-.1214,2.4784,13.5142,13.5142,0,0,1-.7877,3.3276c-.4379,1.0488-.189-.338-1.1734.1612-.3484.1766-.7242.2935-1.0615.4918C295.73,117.0366,295.4564,117.2542,295.1537,117.0645Z" fill="#fff" stroke="#000" stroke-miterlimit="10" stroke-width="0.25"/>
    <path d="M295.0637,108.5433a3.0381,3.0381,0,0,0,.052-2.0955c-1.5893-3.5947-10.687-.013-8.8006-5.9113,2.5016-7.8208,21.4115-6.3006,21.8557,9.6884.3021,10.8745-.7124,12.3463-10.8707,17.4a2.3608,2.3608,0,0,1-2.0767-.109,2.9408,2.9408,0,0,1-1.2868-1.9691C293.5223,123.9075,294.9286,109.0555,295.0637,108.5433Z"/>
    <path d="M290.7883,237.7518a8.0384,8.0384,0,0,0,3.002.599,8.225,8.225,0,0,0,4.0249-1.0819c.348,1.2137.249,2.3864-1.23,2.3751-1.6747-.0126-5.6948-.0165-6.275-.0364-1.0757-.0371-2.0287-.1748-2.0073-.9673C288.3132,238.2576,289.48,238.0027,290.7883,237.7518Z"/>
    <path d="M301.6452,238.4763a7.5808,7.5808,0,0,0,2.9327.6095,7.7258,7.7258,0,0,0,3.5268-.87c.34,1.2433.2706,2.462-1.2218,2.3889-1.6413-.08-4.8251-.204-5.3914-.2736-1.4164-.1739-3.0536-.1146-3.0326-.928C298.4705,238.9521,300.0662,238.7269,301.6452,238.4763Z"/>
    <polygon points="194.487 124.241 267.909 127.269 265.719 102.223 191.881 98.101 194.487 124.241" fill="#fff" opacity="0.3"/>
    <polygon points="198.649 105.593 198.918 109.985 262.575 113.303 261.679 108.41 198.649 105.593" fill="#fff"/>
    <polygon points="199.587 112.651 199.856 117.043 245.61 119.898 244.713 115.005 199.587 112.651" fill="#fff"/>
    <path d="M294.7549,131.7938c-2.1788.8008-4.554.8033-6.8661,1.0085a4.2425,4.2425,0,0,0-2.316.7,3.0339,3.0339,0,0,0-.89,2.9246,8.9348,8.9348,0,0,0,1.3175,2.91,6.233,6.233,0,0,0,1.4206,1.3236,2.0485,2.0485,0,0,0,.9162.1711c6.9956.1705,13.3361-3.2858,18.0716-8.4378a7.1354,7.1354,0,0,0,1.5124-2.2178,4.25,4.25,0,0,0-.8943-4.3611,4.1047,4.1047,0,0,0-3.38-1.2422c-1.2484.23-1.6576,1.1646-2.4547,2.1167A15.9461,15.9461,0,0,1,294.7549,131.7938Z"/>
    <path d="M290.8489,241.4628l3.6865,42.8194h2.9329l-.6518-7.5684H322.18l.6517,7.5684h2.9328l-3.6865-42.8194h-2.9329l.9592,11.14H294.7408l-.9591-11.14Zm4.0824,13.3526h25.3631l1.6949,19.686H296.6261Z"/>
    <polygon points="280.722 257.714 308.659 257.714 308.859 255.399 280.921 255.399 280.722 257.714"/>
    <polygon points="303.008 258.041 308.827 258.041 309.018 255.829 303.198 255.829 303.008 258.041" fill="#e2e2e2" opacity="0.14" style="isolation: isolate"/>
    <polygon points="280.254 279.939 306.943 279.939 307.133 277.727 280.444 277.727 280.254 279.939"/>
    <polygon points="301.123 279.939 306.943 279.939 307.133 277.727 301.313 277.727 301.123 279.939" fill="#e2e2e2" opacity="0.14" style="isolation: isolate"/>
    <polygon points="305.297 288.56 308.367 288.56 312.42 241.49 309.35 241.49 305.297 288.56"/>
    <polygon points="277.32 287.508 280.252 287.508 284.124 242.542 281.191 242.542 277.32 287.508"/>
    <polygon points="327.041 240.705 304.02 240.705 274.862 240.705 274.862 243.393 304.02 243.393 327.041 243.393 327.042 243.393 327.042 240.705 327.041 240.705" style="isolation: isolate"/>
    <polygon points="327.041 240.705 304.02 240.705 274.862 240.705 274.862 243.393 304.02 243.393 327.041 243.393 327.042 243.393 327.042 240.705 327.041 240.705" fill="#fff" opacity="0.3" style="isolation: isolate"/>
    <ellipse cx="347.2401" cy="283.6147" rx="11.7599" ry="1.2407" fill="#e9e8ea"/>
    <path d="M358.5491,264.3991c.0166,12.0123-2.9675,18.9594-6.7111,19.2712l-.0609-43.9888C353.0448,242.162,358.534,253.5291,358.5491,264.3991Z"/>
    <path d="M351.5172,239.1835s.0945.1743.26.4981l.0609,43.9888c-.0861.0072-.1723.015-.2592.0151-3.8642.0053-7.0065-6.9781-7.0235-19.267S351.5172,239.1835,351.5172,239.1835Z"/>
    <path d="M351.6254,273.7645q.006-4.44,0-8.88-.002-8.8809.1107-17.761a.0511.0511,0,0,1,.1022,0q.0869,5.9992.1254,11.9988a23.952,23.952,0,0,1,3.6549-3.6087c.0692-.052.1728.0513.1209.1206a24.6212,24.6212,0,0,1-3.7739,3.8151c.0124,1.8116.0282,3.623.0328,5.4347q.0112,4.44.0248,8.88c.0122,2.9424.2036,5.9477-.0241,8.88a.1627.1627,0,0,1-.3251,0C351.4382,279.7131,351.6213,276.7068,351.6254,273.7645Z" fill="#fff"/>
    <path d="M351.7667,270.0583a50.0913,50.0913,0,0,1,6.0983-6.089.0558.0558,0,0,1,.0789.0787,50.0979,50.0979,0,0,1-6.072,6.1152.0743.0743,0,0,1-.1052-.1049Z" fill="#fff"/>
    <path d="M347.1348,259.9248c.858.7614,1.6841,1.5576,2.5189,2.3442a14.6484,14.6484,0,0,1,2.1309,2.2507.0841.0841,0,0,1-.1142.1145,14.6233,14.6233,0,0,1-2.2565-2.1247c-.789-.8325-1.5876-1.6565-2.3513-2.5124a.0512.0512,0,0,1,.0722-.0723Z" fill="#fff"/>
    <path d="M347.2925,271.1772a43.8411,43.8411,0,0,1,4.2529,4.1691.0929.0929,0,0,1-.1311.1315,43.8328,43.8328,0,0,1-4.1809-4.2415.0418.0418,0,0,1,.0591-.0591Z" fill="#fff"/>
    <path d="M351.4687,279.1116a39.2294,39.2294,0,0,1,5.02-4.9878.06.06,0,0,1,.0855.0853,39.2268,39.2268,0,0,1-4.9738,5.0336.0929.0929,0,0,1-.1317-.1311Z" fill="#fff"/>
    <path d="M346.4634,270.8311c.0113,8.1635-2.0167,12.8847-4.5608,13.0966l-.0414-29.8945C342.7228,255.7188,346.4532,263.4439,346.4634,270.8311Z"/>
    <path d="M341.6846,253.6947s.0642.1184.1767.3385l.0414,29.8945c-.0585.0049-.1171.01-.1762.01-2.6262.0036-4.7616-4.7422-4.7732-13.0937S341.6846,253.6947,341.6846,253.6947Z"/>
    <path d="M341.7581,277.1957q.0041-3.0175,0-6.035-.0014-6.0354.0753-12.07a.0347.0347,0,0,1,.0694,0q.0589,4.077.0852,8.1543a16.2754,16.2754,0,0,1,2.4838-2.4524c.047-.0354.1175.0349.0822.082a16.7335,16.7335,0,0,1-2.5648,2.5927c.0084,1.2312.0192,2.4622.0223,3.6934q.0076,3.0175.0168,6.035c.0083,2,.1383,4.042-.0164,6.0351a.1105.1105,0,0,1-.221,0C341.6309,281.2383,341.7554,279.1953,341.7581,277.1957Z" fill="#fff"/>
    <path d="M341.8542,274.6769a34.0374,34.0374,0,0,1,4.1443-4.138.0379.0379,0,0,1,.0536.0535,34.0455,34.0455,0,0,1-4.1265,4.1559.0505.0505,0,0,1-.0714-.0714Z" fill="#fff"/>
    <path d="M338.7064,267.79c.5831.5174,1.1445,1.0585,1.7118,1.5931a9.9585,9.9585,0,0,1,1.4482,1.53.0572.0572,0,0,1-.0776.0778,9.9448,9.9448,0,0,1-1.5335-1.4439c-.5362-.5657-1.0789-1.1258-1.598-1.7074a.0349.0349,0,1,1,.0491-.05Z" fill="#fff"/>
    <path d="M338.8135,275.4374a29.7882,29.7882,0,0,1,2.89,2.8333.0631.0631,0,1,1-.0891.0894,29.8041,29.8041,0,0,1-2.8413-2.8825.0285.0285,0,0,1,.04-.04Z" fill="#fff"/>
    <path d="M341.6517,280.83a26.661,26.661,0,0,1,3.4114-3.39.0411.0411,0,0,1,.0581.058,26.65,26.65,0,0,1-3.38,3.4208.0632.0632,0,0,1-.0895-.0888Z" fill="#fff"/>
    <rect x="91.409" y="262.5184" width="35.0407" height="23.7395"/>
    <rect x="91.409" y="262.5184" width="35.0407" height="23.7395" fill="#fff" opacity="0.3"/>
    <rect x="84.3043" y="262.5183" width="7.1047" height="23.7395" fill="#a4a4a5"/>
    <rect x="91.409" y="262.5184" width="35.4981" height="3.3728" fill="#a4a4a5"/>
    <rect x="83.7054" y="262.5183" width="7.7036" height="3.3728" fill="#a4a4a5"/>
    <rect x="89.0815" y="260.6226" width="35.1157" height="1.8958" fill="#fff" stroke="#000" stroke-miterlimit="10" stroke-width="0.25"/>
    <rect x="87.8567" y="258.7402" width="35.1157" height="1.8959" fill="#fff" stroke="#000" stroke-miterlimit="10" stroke-width="0.25"/>
    <rect x="87.5573" y="254.9755" width="35.1157" height="1.8958" fill="#fff" stroke="#000" stroke-miterlimit="10" stroke-width="0.25"/>
    <rect x="89.4155" y="253.0931" width="35.1157" height="1.8959" fill="#fff" stroke="#000" stroke-miterlimit="10" stroke-width="0.25"/>
    <rect x="90.4296" y="256.8579" width="35.1156" height="1.8958" fill="#fff" stroke="#000" stroke-miterlimit="10" stroke-width="0.25"/>
    <path d="M295.0831,133.5131c-9.9985,1.0159-20.3352-.8065-28.8321-6.4805a12.5248,12.5248,0,0,0-1.7562-1.2373,14.739,14.739,0,0,0-1.5667-2.6245,11.4585,11.4585,0,0,0-.3135-1.7988l-.5972.8122a2.67,2.67,0,0,0-2.5972-.7674c-1.2234.3789.1306,4.5048,3.43,7.5389.6109.5619,4.7284,4.5959,4.7284,4.5959-.0633-.114-.1166-.2328-.1781-.3476,8.206,7.1376,24.515,8.2342,26.9615,5.1764C294.362,138.38,299.5675,133.0573,295.0831,133.5131Z" fill="#fff" stroke="#000" stroke-miterlimit="10" stroke-width="0.25"/>
  </g>
</svg>
